<?xml version="1.0" encoding="iso-8859-1"?>
<!-- Uploaded to: SVG Repo, www.svgrepo.com, Generator: SVG Repo Mixer Tools -->
<svg height="800px" width="800px" version="1.1" id="Layer_1" xmlns="http://www.w3.org/2000/svg" xmlns:xlink="http://www.w3.org/1999/xlink" 
	 viewBox="0 0 391.095 391.095" xml:space="preserve">
<polygon style="fill:#FFC10D;" points="22.101,98.958 22.101,105.422 368.994,105.422 368.994,98.958 195.547,23.063 "/>
<path style="fill:#56ACE0;" d="M135.362,301.107c0,5.948-4.848,10.861-10.861,10.861s-10.861-4.849-10.861-10.861v-19.523H64.315
	v87.273h120.307v-87.273h-49.325v19.523H135.362z"/>
<path style="fill:#FFC10D;" d="M277.39,301.107c0,5.948-4.848,10.861-10.861,10.861c-5.947,0-10.861-4.849-10.861-10.861v-19.523
	h-49.325v87.273h120.307v-87.273h-49.325v19.523H277.39z"/>
<path style="fill:#FFFFFF;" d="M277.39,192.695c0,5.947-4.848,10.861-10.861,10.861c-5.947,0-10.861-4.848-10.861-10.861v-19.523
	h-49.325v87.273h120.307v-87.273h-49.325v19.523H277.39z"/>
<g>
	<path style="fill:#194F82;" d="M384.121,81.568L199.879,0.824c-2.715-1.099-5.947-1.099-8.663,0L6.974,81.568
		c-3.814,1.616-6.529,5.43-6.529,9.762v24.372c0,5.947,4.848,10.861,10.861,10.861H379.79c5.947,0,10.861-4.848,10.861-10.861
		V91.329C390.65,87.58,387.935,83.766,384.121,81.568z M368.994,105.422H22.101v-6.529l173.446-75.83l173.446,75.895V105.422z"/>
	<path style="fill:#194F82;" d="M337.511,151.515H195.547c-5.947,0-10.861,4.848-10.861,10.861v98.069H53.584
		c-5.947,0-10.861,4.848-10.861,10.861v108.929c0,5.947,4.848,10.861,10.861,10.861h283.475c5.947,0,10.861-4.848,10.861-10.861
		V162.376C348.372,156.364,343.523,151.515,337.511,151.515z M326.715,368.857H206.408v-87.273h49.325v19.523
		c0,5.948,4.848,10.861,10.861,10.861c5.947,0,10.861-4.849,10.861-10.861v-19.523h49.325L326.715,368.857L326.715,368.857z
		 M326.715,259.927H206.408v-86.756h49.325v19.523c0,5.947,4.848,10.861,10.861,10.861c5.947,0,10.861-4.848,10.861-10.861v-19.523
		h49.325L326.715,259.927L326.715,259.927z M184.687,368.857H64.38v-87.273h49.325v19.523c0,5.948,4.848,10.861,10.861,10.861
		s10.861-4.849,10.861-10.861v-19.523h49.325v87.273H184.687z"/>
</g>
</svg>